<?xml version="1.0" encoding="utf-8"?>
<!-- Generator: Adobe Adobe Illustrator 24.2.0, SVG Export Plug-In . SVG Version: 6.00 Build 0)  -->
<svg version="1.1" id="Layer_1" xmlns="http://www.w3.org/2000/svg" xmlns:xlink="http://www.w3.org/1999/xlink" x="0px" y="0px"
	 viewBox="0 0 710 710" style="enable-background:new 0 0 710 710;" xml:space="preserve">
<style type="text/css">
	.st0{fill:#16186F;}
	.st1{fill:#1318FF;}
	.st2{fill:#1318FE;}
	.st3{fill:#1419FE;}
	.st4{fill:#DCDCDD;}
</style>
<g>
	<g>
		<path class="st0" d="M312.1,224.01c11-2.02,21.55-4.45,32.22-5.92c22.91-3.17,44.98,0.94,65.98,9.95
			c43.7,18.75,70.65,51.85,81.67,97.94c3.27,13.68,3.5,27.56,2.3,41.64c-4.34,50.93-29.91,87.72-74.2,111.86
			c-16.28,8.87-34.05,12.96-52.7,14.72c-60.61,5.7-119.61-30.07-141.22-88.23c-4.05-10.89-6.65-22.51-8.32-34.03
			c-1.29-8.95-0.24-18.27,0.03-27.41c0.85-28.52,11.97-53.18,29.17-75.32C263.86,247.53,285.84,232.94,312.1,224.01z M326.5,268.34
			c-21.1,0-42.19,0-63.29,0c-0.29,0.54-0.57,1.08-0.86,1.62c1.16,0.98,2.22,2.62,3.5,2.81c4.82,0.71,6.21,3.42,6.2,7.97
			c-0.08,49.65-0.09,99.31,0.01,148.96c0.01,4.62-1.58,7.14-6.21,8.04c-1.29,0.25-2.3,1.94-3.43,2.97c0.35,0.43,0.69,0.86,1.04,1.29
			c20.15,0,40.29,0,60.44,0c33.82,0,67.65,0.01,101.47-0.02c3.5,0,6.67,0.09,7.76,4.48c0.22,0.87,2.17,1.32,3.84,2.25
			c0-19.55,0-37.98,0-56.41c-0.37-0.29-0.74-0.58-1.11-0.87c-0.95,0.98-2.43,1.81-2.76,2.97c-1.99,7.1-2.27,7.43-9.45,7.43
			c-32.32,0.01-64.65,0.01-96.97-0.01c-1.6,0-3.2-0.17-4.98-0.26c0-10.31,0-20.23,0-30.39c21.07,0,41.87-0.17,62.66,0.22
			c2.54,0.05,5.05,3.04,7.52,4.77c1.29,0.9,2.43,1.99,4.67,3.86c0-18.75,0-35.65,0-53.36c-1.72,0.7-3.76,0.92-4.06,1.75
			c-2.36,6.58-7.83,6.41-13.21,6.42c-16.83,0.04-33.66,0.01-50.49,0.01c-2.27,0-4.55,0-6.98,0c0-9.46,0-18.35,0-27.2
			c0.86-0.16,1.35-0.33,1.83-0.33c33.99-0.02,67.98-0.01,101.97-0.05c4.18-0.01,6.4,1.89,7.33,5.93c0.33,1.42,1.74,2.59,2.66,3.88
			c0.45-0.29,0.9-0.58,1.34-0.86c0-18.92,0-37.83,0-58.24c-1.89,1.57-3.69,2.34-3.77,3.26c-0.58,6.61-4.76,7.24-10.19,7.21
			C391.15,268.26,359.32,268.34,326.5,268.34z"/>
		<path class="st1" d="M672.42,509.37c-5.81,10.85-11.45,21.37-17.33,32.34c-34.91-25.38-72.51-43.63-112.73-58.11
			c8.83-37.67,13.57-75.61,14.34-114.9c50.15,0,99.87,0,150.23,0c0,6.12,0.75,12.98-0.13,19.62c-3.34,25.18-7.56,50.27-15.95,74.34
			C685.38,478.34,678.73,493.6,672.42,509.37z"/>
		<path class="st1" d="M160.66,276.59c-2.19,22.24-4.26,44.05-6.42,66.75c-49.27,0-99,0-149.87,0
			c2.65-61.97,20.36-119.39,52.83-172.86c34.62,25.15,72.12,43.39,111.88,57.69C166.28,244.28,163.53,260.22,160.66,276.59z"/>
		<path class="st1" d="M164.29,458.6c1.79,8.49,3.46,16.56,5.22,25.04c-39.94,14.44-77.61,32.59-112.34,57.93
			c-2.98-5.33-5.87-10.31-8.59-15.38C29.9,491.39,15.7,455.01,9.38,415.8c-2.53-15.69-5.59-31.3-4.1-47.25c49.76,0,99.45,0,149.62,0
			c0.35,4.61,0.83,8.52,0.93,12.44c0.67,24.96,3.47,49.68,8.04,74.22C164.04,456.19,164.07,457.2,164.29,458.6z"/>
		<path class="st1" d="M673.2,205.82c16.6,31.81,25.51,65.56,31.05,100.43c1.98,12.47,3.32,24.85,2.55,37.14
			c-50.01,0-99.72,0-149.35,0c-1.64-20.02-2.59-39.28-4.97-58.35c-2.36-18.86-6.18-37.54-9.45-56.85
			c39.33-14.23,77.02-32.38,112.2-58.04C661.3,182.18,667.18,193.82,673.2,205.82z"/>
		<path class="st2" d="M234.95,686.08c-15.59-6.64-30.81-13.18-46.02-19.72c0.08-0.69,0.16-1.38,0.24-2.07
			c44.9-26.19,93.13-42.75,145.23-46.07c79-5.03,144.1,19.11,188.7,46.97c-7.33,3.46-14.26,6.51-20.98,9.95
			c-31.19,15.96-64.6,24.42-99.03,29.33c-6.57,0.94-13.26,1.47-19.9,1.45c-22.65-0.07-45.37,0.6-67.92-1.02
			C287.78,702.94,261.21,695.68,234.95,686.08z"/>
		<path class="st2" d="M218.73,63.26c-10.02-5.14-19.71-10.1-29.95-15.34c83.78-52.25,229.81-61.12,334.38-0.88
			c-2.1,1.39-3.88,2.76-5.82,3.83c-34.47,19.16-70.97,32.5-109.91,39.36c-24.79,4.36-49.74,4.95-74.61,3.42
			C293.04,91.19,255.26,80.02,218.73,63.26z"/>
		<path class="st2" d="M277.82,494.21c20.26,11.58,41.74,18.25,64.76,20.48c0,27.49,0,54.55,0,82.38
			c-31.8,0.87-62.88,4.9-93.03,14.76c-22.84-32.76-39.68-67.83-51.79-106.17c7.93-2.5,15.66-5.24,23.55-7.35
			c13.44-3.58,26.93-6.96,40.51-9.95c2.7-0.59,6,0.66,8.81,1.67C273.08,490.93,275.23,492.67,277.82,494.21z"/>
		<path class="st2" d="M503.73,502.2c3.63,1.23,6.88,2.34,10.46,3.56c-11.96,38.09-28.85,73.27-51.15,105.23
			c-15.83-3.41-31.04-7.4-46.51-9.8c-15.38-2.39-31.01-3.2-47-4.74c0-26.86,0-53.93,0-81.31c6.93-1.31,14.06-2.52,21.13-4
			c18.17-3.81,34.77-11.38,50.59-20.98c2.53-1.54,6.41-2.36,9.23-1.69C468.16,492.72,485.73,497.49,503.73,502.2z"/>
		<path class="st2" d="M415.14,111.09c16.11-3.32,31.79-6.61,47.71-9.94c15.73,18.47,42.73,73.66,51.18,105.3
			c-8.09,2.5-16.16,5.27-24.39,7.46c-12.96,3.46-25.97,6.78-39.09,9.58c-3,0.64-7.04-0.19-9.69-1.83
			c-20.9-12.89-43.28-21.32-67.79-23.81c-0.96-0.1-1.9-0.5-3.09-0.83c0-27.17,0-54.26,0-81.48
			C385.07,114.06,399.89,112.59,415.14,111.09z"/>
		<path class="st2" d="M278.23,107.88c21.29,2.82,42.16,5.57,63.62,8.39c0,26.08,0,53.16,0,80.8c-5.07,0.89-10.38,1.79-15.69,2.75
			c-19.98,3.62-38.23,11.5-55.46,22.08c-2.31,1.42-5.8,2.45-8.28,1.82c-20.86-5.32-41.61-11.06-62.39-16.69
			c-0.61-0.17-1.18-0.51-2.16-0.96c11.84-37.85,28.77-73.03,51.45-105.6C258.97,102.95,268.39,105.38,278.23,107.88z"/>
		<path class="st2" d="M187.89,170.88c-3.47,9.52-6.85,18.66-10.38,28.24c-36.48-13.76-71.09-30.88-104.7-52.08
			c6.32-7.75,12-15.08,18.07-22.09c21.19-24.45,45.33-45.53,72.41-63.26c2.72-1.78,4.43-1.83,7.42-0.16
			c18.22,10.17,36.66,19.93,55.03,29.83c1.13,0.61,2.27,1.21,3.74,1.99C212.43,117.56,198.73,143.24,187.89,170.88z"/>
		<path class="st2" d="M599.12,541.87c13.33,7.46,26.33,14.77,40.11,22.52c-3.3,4.34-5.97,8.05-8.83,11.61
			c-23.34,29.02-50.46,53.87-81.65,74.27c-2.68,1.76-4.39,1.91-7.41,0.22c-18.19-10.16-36.62-19.92-54.97-29.8
			c-1.14-0.61-2.3-1.19-3.89-2c23-32.5,39.67-67.83,51.72-105.88C556.61,521.16,578,530.77,599.12,541.87z"/>
		<path class="st2" d="M545.66,59.97c41.19,25.93,76.17,62.34,92.54,86.71c-7.45,8.65-76.41,43.42-104.03,52.34
			c-11.98-37.53-28.48-72.94-51.54-105.41c0.74-0.59,1.28-1.16,1.94-1.52c19.48-10.56,38.96-21.1,58.46-31.61
			C543.72,60.11,544.55,60.03,545.66,59.97z"/>
		<path class="st2" d="M219.38,603.6c3.42,5.12,6.63,9.95,9.71,14.59c-20.77,11.18-41.41,22.28-62.87,33.83
			c-35.61-22.64-66.84-51.61-93.24-87.13c33.19-21.05,67.84-38.07,104.77-52.14C187.91,544.75,201.42,575.01,219.38,603.6z"/>
		<path class="st3" d="M183.42,264.46c2.11-9.94,4.07-19.47,6.06-29.15c17.04,4.2,33.47,8.26,50.5,12.46
			c-24.33,27.06-37.87,58.77-41.29,94.98c-7.83,0-15.39,0-23.42,0C175.96,316.38,178.88,290.55,183.42,264.46z"/>
		<path class="st3" d="M501.63,240.73c6.91-1.92,13.42-3.72,20.53-5.68c8.88,35.33,13.32,71.03,14.63,107.6c-7.91,0-15.46,0-23.47,0
			c-3.4-35.9-16.86-67.65-41.51-95.07C482.07,245.24,491.65,243.04,501.63,240.73z"/>
		<path class="st3" d="M175.57,377.57c-0.15-2.92-0.26-5.38-0.38-8.23c7.93,0,15.48,0,23.48,0c3.4,35.9,16.85,67.65,41.33,94.88
			c-16.8,4.14-33.08,8.16-50.22,12.38C181.64,444.47,177.17,411.47,175.57,377.57z"/>
		<path class="st3" d="M487.13,467.91c-5.1-1.12-9.79-2.18-15.29-3.42c24.35-27.2,38.06-58.83,41.45-95.18c7.66,0,15.23,0,23.45,0
			c-1.08,36.26-5.75,71.92-14.45,107.41C510.5,473.75,499.02,470.86,487.13,467.91z"/>
		<path class="st4" d="M327,268.34c32.32,0,64.15-0.08,95.97,0.07c5.44,0.03,9.62-0.6,10.19-7.21c0.08-0.92,1.88-1.68,3.77-3.26
			c0,20.41,0,39.33,0,58.24c-0.45,0.29-0.9,0.58-1.34,0.86c-0.92-1.28-2.33-2.45-2.66-3.88c-0.94-4.04-3.15-5.94-7.33-5.93
			c-33.99,0.05-67.98,0.04-101.97,0.05c-0.48,0-0.96,0.17-1.83,0.33c0,8.86,0,17.74,0,27.2c2.43,0,4.7,0,6.98,0
			c16.83,0,33.66,0.02,50.49-0.01c5.38-0.01,10.85,0.16,13.21-6.42c0.3-0.84,2.34-1.05,4.06-1.75c0,17.71,0,34.61,0,53.36
			c-2.24-1.86-3.38-2.96-4.67-3.86c-2.46-1.72-4.98-4.72-7.52-4.77c-20.79-0.39-41.59-0.22-62.66-0.22c0,10.16,0,20.08,0,30.39
			c1.78,0.1,3.38,0.26,4.98,0.26c32.32,0.02,64.65,0.02,96.97,0.01c7.18,0,7.46-0.33,9.45-7.43c0.32-1.16,1.81-1.99,2.76-2.97
			c0.37,0.29,0.74,0.58,1.11,0.87c0,18.43,0,36.86,0,56.41c-1.67-0.93-3.62-1.37-3.84-2.25c-1.09-4.39-4.26-4.48-7.76-4.48
			c-33.82,0.03-67.65,0.02-101.47,0.02c-20.15,0-40.29,0-60.44,0c-0.35-0.43-0.69-0.86-1.04-1.29c1.14-1.03,2.14-2.72,3.43-2.97
			c4.62-0.9,6.22-3.42,6.21-8.04c-0.1-49.65-0.09-99.3-0.01-148.96c0.01-4.55-1.38-7.26-6.2-7.97c-1.28-0.19-2.34-1.83-3.5-2.81
			c0.29-0.54,0.57-1.08,0.86-1.62C284.31,268.34,305.4,268.34,327,268.34z"/>
	</g>
</g>
</svg>
