<?xml version="1.0" encoding="utf-8"?>
<!-- Generator: Adobe Adobe Illustrator 24.2.0, SVG Export Plug-In . SVG Version: 6.00 Build 0)  -->
<svg version="1.1" id="Layer_1" xmlns="http://www.w3.org/2000/svg" xmlns:xlink="http://www.w3.org/1999/xlink" x="0px" y="0px"
	 width="500px" height="500px" viewBox="0 0 500 500" style="enable-background:new 0 0 500 500;" xml:space="preserve">
<style type="text/css">
	.st0{fill:#F8EEB6;}
</style>
<g>
	<g>
		<path d="M233.57,0.71c5.97,0,11.93,0,18.24,0.34c0.25,1.99,0.08,3.65,0.08,5.31c-0.06,136.83-0.12,273.66-0.12,410.49
			c0,27.95,0.24,55.91,0.38,83.86c-5.97,0-11.93,0-18.34-0.28c-3.98-0.63-7.54-0.91-11.07-1.34c-52.74-6.34-99.33-26.7-138.74-62.37
			c-48-43.45-75.18-97.71-81.96-162.15c-0.29-2.73-0.87-5.43-1.31-8.14c0-10.25,0-20.51,0.28-31.21
			c1.87-21.86,5.83-42.79,12.57-63.2C43.69,80.71,124.58,14.31,219.79,2.75C224.4,2.2,228.98,1.4,233.57,0.71z"/>
		<path class="st0" d="M252.48,500.71c-0.47-27.95-0.71-55.91-0.71-83.86c0-136.83,0.07-273.66,0.12-410.49
			c0-1.66,0.16-3.32,0.25-5.31c5.02-0.34,10.03-0.34,15.45-0.05c0.64,0.52,0.87,0.95,1.13,0.98c10.04,1.13,20.14,1.83,30.09,3.45
			c8.16,1.33,16.23,3.44,24.18,5.77c22,6.46,42.58,16.13,61.99,28.32c23.12,14.52,42.76,32.96,60.16,53.83
			c15.16,18.19,27.03,38.46,36.18,60.26c9.68,23.07,15.88,47.06,18.06,72.04c0.27,3.13,0.89,6.23,1.34,9.34
			c0,10.25,0,20.51-0.21,31.3c-2.06,13.63-3.15,26.88-5.93,39.76c-6.25,29.04-17.84,55.99-34.02,80.94
			c-10.43,16.08-22.82,30.48-36.58,43.85c-9.58,9.31-19.71,17.83-30.62,25.46c-27.72,19.38-58.32,32.19-91.31,39.29
			c-8.18,1.76-16.57,2.49-24.86,3.71c-3.11,0.46-6.22,0.94-9.33,1.41C262.84,500.71,257.83,500.71,252.48,500.71z"/>
	</g>
</g>
</svg>
