<?xml version="1.0" encoding="utf-8"?>
<!-- Generator: Adobe Adobe Illustrator 24.2.0, SVG Export Plug-In . SVG Version: 6.00 Build 0)  -->
<svg version="1.1" id="Layer_1" xmlns="http://www.w3.org/2000/svg" xmlns:xlink="http://www.w3.org/1999/xlink" x="0px" y="0px"
	 viewBox="0 0 500 500" style="enable-background:new 0 0 500 500;" xml:space="preserve">
<g>
	<g>
		<path d="M239.29,0.71c7.39,0,14.79,0,22.8,0.12c87.19,6.46,154.49,45.64,201.3,118.9c23.35,36.54,34.49,77.19,37.33,120.27
			c0,6.92,0,13.84,0,21.4c-0.21,1.79-0.53,2.94-0.61,4.09c-5.77,77.32-39.43,139.64-101.22,186.35
			c-40.34,30.49-86.54,45.5-136.74,48.87c-7.39,0-14.79,0-22.8-0.12c-87.19-6.46-154.49-45.64-201.3-118.9
			C14.7,345.15,3.55,304.5,0.71,261.43c0-6.92,0-13.84,0-21.4c0.21-1.79,0.53-2.93,0.61-4.09C7.09,158.62,40.76,96.3,102.55,49.59
			C142.89,19.1,189.09,4.09,239.29,0.71z"/>
	</g>
</g>
</svg>
