<?xml version="1.0" encoding="utf-8"?>
<!-- Generator: Adobe Adobe Illustrator 24.2.0, SVG Export Plug-In . SVG Version: 6.00 Build 0)  -->
<svg version="1.1" id="Layer_1" xmlns="http://www.w3.org/2000/svg" xmlns:xlink="http://www.w3.org/1999/xlink" x="0px" y="0px"
	 width="500px" height="500px" viewBox="0 0 500 500" style="enable-background:new 0 0 500 500;" xml:space="preserve">
<style type="text/css">
	.st0{fill:#F8EEB6;}
</style>
<g>
	<g>
		<path d="M500.71,235.71c0,10.01,0,20.03-0.28,30.5c-2.46,14.64-3.73,29.03-6.98,42.97c-23.99,102.92-113.11,180.4-218.16,190.21
			c-2.97,0.28-5.91,0.87-8.86,1.32c-5.49,0-10.98,0-16.81-0.34c-0.25-1.99-0.08-3.65-0.08-5.31c0.06-136.83,0.12-273.66,0.12-410.49
			c0-27.95-0.24-55.91-0.38-83.86c5.49,0,10.98,0,16.93,0.28c26.34,2.09,51.42,7.5,75.61,16.95c87.55,34.23,149,115.71,157.58,208.9
			C499.68,229.82,500.27,232.76,500.71,235.71z"/>
		<path class="st0" d="M248.95,0.71c0.47,27.95,0.71,55.91,0.71,83.86c0,136.83-0.07,273.66-0.12,410.49c0,1.66-0.16,3.32-0.25,5.31
			c-5.02,0.34-10.03,0.34-15.59,0.13c-8.16-1.04-15.85-1.5-23.39-2.77c-21.92-3.71-43.09-10.02-63.35-19.24
			c-35.72-16.27-65.7-39.99-90.55-70.25c-18.88-22.98-33.11-48.64-42.38-76.87c-3.88-11.83-6.65-24.04-9.48-36.18
			c-1.29-5.52-1.5-11.29-2.23-16.95c-0.51-3.94-1.07-7.87-1.61-11.81c0-10.25,0-20.51,0.21-31.3c2.22-14.3,3.4-28.24,6.4-41.77
			c6.3-28.39,17.85-54.72,33.69-79.16c11.03-17.01,24.07-32.29,39-45.96c6.21-5.68,12.39-11.46,19.04-16.58
			c16.35-12.58,34.04-23.04,53.13-30.87c10.58-4.33,21.47-8,32.42-11.32c6.43-1.95,13.22-2.72,19.88-3.89
			c5.79-1.01,11.62-1.8,17.42-2.75c3.9-0.64,7.78-1.41,11.66-2.11C238.59,0.71,243.6,0.71,248.95,0.71z"/>
	</g>
</g>
</svg>
