<?xml version="1.0" encoding="utf-8"?>
<!-- Generator: Adobe Adobe Illustrator 24.2.0, SVG Export Plug-In . SVG Version: 6.00 Build 0)  -->
<svg version="1.1" id="Layer_1" xmlns="http://www.w3.org/2000/svg" xmlns:xlink="http://www.w3.org/1999/xlink" x="0px" y="0px"
	 width="500px" height="500px" viewBox="0 0 500 500" style="enable-background:new 0 0 500 500;" xml:space="preserve">
<style type="text/css">
	.st0{fill:#C4C3BB;}
	.st1{fill:#F8EEB6;}
</style>
<g>
	<g>
		<path d="M500.71,230c0,13.59,0,27.17-0.29,41.21c-1.76,10.67-2.99,20.93-4.75,31.1c-3.47,20.02-10.43,38.93-19.12,57.22
			c-6.13,12.9-13.06,25.39-21.82,36.69c-7.56,9.76-15.47,19.26-23.59,28.56c-4.1,4.7-8.83,8.9-13.6,12.95
			c-7.54,6.4-15.03,12.93-23.12,18.58c-14.61,10.21-30.12,18.93-46.72,25.6c-19.07,7.66-38.36,14.48-59.49,15.41
			c-12.56,0.28-24.59-1.69-36.32-4.7c-17.94-4.6-35.08-11.42-51.67-19.8c-16.27-8.21-29.8-19.87-42.7-32.31
			c-7.4-7.13-13.87-15.27-20.49-23.18c-11.02-13.17-19.94-27.78-27.66-43.04c-7.94-15.7-14.16-32.09-19.02-49.07
			c-6.38-22.29-9.36-45.03-10.22-68.06c-0.37-9.97,0.45-20.04,1.38-30c0.98-10.4,2.45-20.77,4.24-31.06
			c3.98-22.92,11.52-44.78,22-65.47c6.18-12.19,13.5-23.86,21.03-35.29c5.35-8.12,11.57-15.74,18.02-23.05
			c6.14-6.97,12.86-13.48,19.72-19.76c5.48-5.01,11.42-9.56,17.4-13.98c11.94-8.85,25.45-14.83,39.11-20.33
			c12.04-4.85,24.39-9.08,37.3-11c9.34-1.39,18.78-2.14,28.51-3.11c3.18,0.11,6.16-0.35,8.87,0.29c9.94,2.33,19.9,4.67,29.65,7.66
			c17.93,5.49,34.82,13.37,51.03,22.87c15.27,8.95,29.46,19.34,42.3,31.39c8.91,8.36,16.97,17.67,24.95,26.96
			c11.16,12.98,20.11,27.5,27.95,42.7c7.43,14.4,13.35,29.4,17.81,44.97c3.73,13,6.58,26.17,7.89,39.65
			C499.62,223.74,500.24,226.86,500.71,230z"/>
		<path class="st0" d="M262.52,0.71c0.33,0.13,0.33,0.25,0,0.55c-8.25,0.16-16.16,0.16-24.08,0.15c0,0,0.08-0.35,0.1-0.53
			C246.44,0.71,254.32,0.71,262.52,0.71z"/>
		<path class="st0" d="M1.42,262.24c0,0-0.35-0.07-0.52-0.08c-0.18-7.41-0.18-14.81-0.18-22.54c0-0.33,0.35-0.37,0.53-0.06
			C1.42,247.33,1.42,254.79,1.42,262.24z"/>
		<path class="st1" d="M1.41,262.57c0.01-7.78,0.01-15.23,0.01-23.04c-0.13-13.43,2.2-26.19,4.64-38.98
			c4.59-24.1,12.88-46.87,24.72-68.24c5.77-10.42,12.83-20.13,19.52-30.02c3.34-4.94,6.8-9.87,10.81-14.24
			c6.71-7.31,13.82-14.26,20.93-21.19c3.63-3.54,7.43-6.97,11.52-9.96c10.31-7.54,20.44-15.44,31.35-22.01
			c17.52-10.55,36.19-18.94,56.05-24.03c12.24-3.13,24.8-5.09,37.28-7.22c6.48-1.11,13.09-1.46,19.93-2.19
			c8.2-0.03,16.12-0.02,24.37,0.01c1.7,0.24,3.05,0.56,4.42,0.67c7.05,0.55,14.1,1.05,21.36,1.74c-9.19,1.21-18.63,1.96-27.97,3.35
			c-12.91,1.92-25.26,6.15-37.3,11c-13.66,5.5-27.17,11.49-39.11,20.33c-5.98,4.43-11.92,8.97-17.4,13.98
			c-6.86,6.28-13.58,12.79-19.72,19.76c-6.44,7.31-12.66,14.93-18.02,23.05c-7.53,11.43-14.85,23.1-21.03,35.29
			c-10.48,20.69-18.02,42.55-22,65.47c-1.79,10.29-3.26,20.67-4.24,31.06c-0.94,9.96-1.76,20.02-1.38,30
			c0.86,23.03,3.85,45.77,10.22,68.06c4.86,16.98,11.08,33.38,19.02,49.07c7.72,15.26,16.64,29.87,27.66,43.04
			c6.62,7.91,13.08,16.05,20.49,23.18c12.9,12.43,26.43,24.09,42.7,32.31c16.59,8.38,33.74,15.19,51.67,19.8
			c11.73,3.01,23.75,4.98,36.32,4.7c-8,0.96-16.33,1.83-24.97,2.7c-8.25-0.01-16.17-0.01-24.44-0.01
			c-19.52-0.21-38.18-3.74-56.54-8.92c-26.26-7.42-50.74-18.83-73.09-34.46c-8.89-6.21-17.26-13.26-25.36-20.49
			c-7.67-6.86-15.13-14.07-21.87-21.84c-11.41-13.15-21.71-27.2-30-42.6c-10.28-19.1-18.77-38.96-23.53-60.16
			c-2.73-12.17-4.33-24.61-6.24-36.96C1.58,270.73,1.64,266.79,1.41,262.57z"/>
	</g>
</g>
</svg>
