<?xml version="1.0" encoding="utf-8"?>
<!-- Generator: Adobe Adobe Illustrator 24.2.0, SVG Export Plug-In . SVG Version: 6.00 Build 0)  -->
<svg version="1.1" id="Layer_1" xmlns="http://www.w3.org/2000/svg" xmlns:xlink="http://www.w3.org/1999/xlink" x="0px" y="0px"
	 viewBox="0 0 500 500" style="enable-background:new 0 0 500 500;" xml:space="preserve">
<style type="text/css">
	.st0{fill:#F8EEB6;}
	.st1{fill:#010101;}
	.st2{fill:#252524;}
	.st3{fill:#CEC9B1;}
	.st4{fill:#D4CEAE;}
</style>
<g>
	<g>
		<path class="st0" d="M209.27,5.06c0.69-0.06,1.37-0.13,2.69-0.19c3.35,0.01,6.06,0.01,9.07,0.07
			c46.46,3.56,87.07,20.92,119.49,53.53c76.63,77.07,95.5,170.17,67.17,272.57c-26.68,96.43-100.22,159.24-187.29,165.45
			c-3.01,0.01-5.7,0.07-8.39,0.13c-0.69-0.06-1.38-0.13-2.4-0.38c-0.33-0.19-0.33-0.51-0.17-0.53c0.34-0.09,0.51-0.17,0.69-0.25
			c-0.29,0.08-0.58,0.16-1.14,0.24c-0.82,0-1.37,0.01-1.92,0.02c-42.41-6.85-80.06-24.42-113.13-51.5
			c-51.58-42.24-81.1-96.96-90.26-162.83c-0.23-1.64-0.1-3.32-0.13-5.56c-0.21-1.35-0.43-2.13-0.65-2.9
			c-0.02-1.71-0.05-3.42-0.06-5.75c-0.21-2.06-0.43-3.5-0.64-4.94c-0.02-7.45-0.03-14.9,0.16-22.89c0.3-2.05,0.39-3.55,0.49-5.05
			c0.01-1.71,0.01-3.42,0.22-5.63c0.3-1.32,0.39-2.15,0.49-2.98c9.3-111.71,98.26-203.01,203.49-219.96
			c1.13,0.01,1.67,0.01,2.31,0.14c0.31,0.12,0.54,0.12,0.77,0.11c-0.28-0.08-0.56-0.17-0.85-0.42
			C209.29,5.38,209.27,5.06,209.27,5.06z"/>
		<path class="st1" d="M220.73,496.54c86.75-6.26,160.29-69.07,186.97-165.5c28.33-102.4,9.46-195.5-67.17-272.57
			C308.1,25.86,267.49,8.5,220.95,4.78c-0.57-0.51-0.74-0.81-0.92-1.11C354.11-13.02,478.71,81.6,496.46,213.58
			c18.66,138.82-68.71,258.46-208.12,282.93c-21.97,3.86-45.11,1.06-67.94,1.14C220.35,497.14,220.54,496.84,220.73,496.54z"/>
		<path class="st2" d="M219.73,3.61c0.47,0.36,0.65,0.66,0.91,1.12c-2.63,0.15-5.33,0.14-8.34,0.1
			C214.48,4.38,216.96,3.97,219.73,3.61z"/>
		<path class="st2" d="M220.41,496.49c0.13,0.35-0.05,0.64-0.31,1.1c-2.61-0.12-5.15-0.4-7.88-0.83
			C214.71,496.56,217.4,496.5,220.41,496.49z"/>
		<path class="st3" d="M2.66,234.49c0.1,1.3,0.01,2.8-0.27,4.51C2.29,237.7,2.38,236.19,2.66,234.49z"/>
		<path class="st3" d="M2.19,262.51c0.24,1.16,0.45,2.6,0.67,4.34C2.62,265.7,2.4,264.25,2.19,262.51z"/>
		<path class="st3" d="M3.37,225.84c0.1,0.66,0,1.49-0.28,2.49C3,227.68,3.09,226.84,3.37,225.84z"/>
		<path class="st3" d="M2.89,273.17c0.24,0.52,0.46,1.29,0.68,2.32C3.33,274.98,3.1,274.2,2.89,273.17z"/>
		<path class="st4" d="M209.02,5.04c0.24,0.02,0.26,0.35,0.26,0.51c0,0.17-0.01,0.17-0.01,0.17c-0.55,0-1.1,0.01-1.92,0
			C207.65,5.48,208.21,5.25,209.02,5.04z"/>
		<path class="st4" d="M207.24,495.9c0.39-0.2,0.94-0.21,1.77-0.2c0.28,0.01,0.28,0.02,0.28,0.02s-0.01,0.32-0.02,0.49
			C208.64,496.28,208.02,496.18,207.24,495.9z"/>
		<path class="st4" d="M209.29,5.71c0.28,0.08,0.57,0.17,0.85,0.25c-0.23,0.01-0.46,0.02-0.77-0.11
			C209.28,5.72,209.29,5.71,209.29,5.71z"/>
		<path class="st4" d="M209.28,495.71c0.28-0.09,0.57-0.17,0.86-0.25c-0.18,0.08-0.36,0.16-0.69,0.25
			C209.29,495.72,209.29,495.71,209.28,495.71z"/>
	</g>
</g>
</svg>
