<?xml version="1.0" encoding="utf-8"?>
<!-- Generator: Adobe Adobe Illustrator 24.2.0, SVG Export Plug-In . SVG Version: 6.00 Build 0)  -->
<svg version="1.1" id="Layer_1" xmlns="http://www.w3.org/2000/svg" xmlns:xlink="http://www.w3.org/1999/xlink" x="0px" y="0px"
	 viewBox="0 0 500 500" style="enable-background:new 0 0 500 500;" xml:space="preserve">
<style type="text/css">
	.st0{fill:#C4C3BB;}
	.st1{fill:#F8EEB6;}
</style>
<g>
	<g>
		<path d="M0.71,271.43c0-13.59,0-27.17,0.29-41.21c1.76-10.67,2.99-20.93,4.75-31.1c3.47-20.02,10.43-38.93,19.12-57.22
			C31,129,37.93,116.51,46.69,105.21c7.56-9.76,15.47-19.26,23.59-28.56c4.1-4.7,8.83-8.9,13.6-12.95
			c7.54-6.4,15.03-12.93,23.12-18.58c14.61-10.21,30.12-18.93,46.72-25.6c19.07-7.66,38.36-14.48,59.49-15.41
			c12.56-0.28,24.59,1.69,36.32,4.7c17.94,4.6,35.08,11.42,51.67,19.8c16.27,8.21,29.8,19.87,42.7,32.31
			c7.4,7.13,13.87,15.27,20.49,23.18c11.02,13.17,19.94,27.78,27.66,43.04c7.94,15.7,14.16,32.09,19.02,49.07
			c6.38,22.29,9.36,45.03,10.22,68.06c0.37,9.97-0.45,20.04-1.38,30c-0.98,10.4-2.45,20.77-4.24,31.06
			c-3.98,22.92-11.52,44.78-22,65.47c-6.18,12.19-13.5,23.86-21.03,35.29c-5.35,8.12-11.57,15.74-18.01,23.05
			c-6.14,6.97-12.86,13.48-19.72,19.76c-5.48,5.01-11.42,9.56-17.4,13.98c-11.94,8.85-25.45,14.83-39.11,20.33
			c-12.04,4.85-24.39,9.08-37.3,11c-9.34,1.39-18.78,2.14-28.51,3.11c-3.18-0.11-6.16,0.35-8.87-0.29
			c-9.94-2.33-19.9-4.67-29.65-7.66c-17.93-5.49-34.82-13.37-51.03-22.87c-15.27-8.95-29.46-19.34-42.3-31.39
			c-8.91-8.36-16.97-17.67-24.95-26.96c-11.16-12.98-20.11-27.5-27.95-42.7c-7.43-14.4-13.35-29.4-17.81-44.97
			c-3.73-13-6.58-26.17-7.89-39.65C1.81,277.69,1.19,274.57,0.71,271.43z"/>
		<path class="st0" d="M238.45,1.42c0,0,0.08-0.35,0.1-0.52c7.89-0.18,15.77-0.18,23.97-0.18c0.33,0.13,0.33,0.25,0,0.55
			C254.28,1.43,246.36,1.42,238.45,1.42z"/>
		<path class="st1" d="M500.02,238.86c-0.01,7.78-0.01,15.23-0.01,23.04c0.18,15.12-2.77,29.47-5.7,43.84
			c-4.49,22.03-12.31,42.88-23.18,62.45c-6.31,11.35-13.42,22.39-21.28,32.72c-8.13,10.69-17.05,20.93-26.62,30.35
			c-19.49,19.17-41.83,34.48-66.74,45.9c-15.41,7.07-31.21,13.16-47.83,16.61c-11.39,2.36-22.97,3.8-34.48,5.51
			c-3.5,0.52-7.07,0.52-10.94,0.76c-8.25-0.01-16.17-0.01-24.44-0.01c-8.73-0.76-17.1-1.52-25.68-2.45
			c9.19-1.2,18.63-1.96,27.97-3.34c12.91-1.92,25.26-6.15,37.3-11c13.66-5.5,27.17-11.49,39.11-20.33
			c5.98-4.43,11.92-8.97,17.4-13.98c6.86-6.28,13.58-12.79,19.72-19.76c6.44-7.31,12.66-14.93,18.01-23.05
			c7.53-11.43,14.85-23.1,21.03-35.29c10.48-20.69,18.02-42.55,22-65.47c1.79-10.29,3.26-20.67,4.24-31.06
			c0.94-9.96,1.76-20.02,1.38-30c-0.86-23.03-3.85-45.77-10.22-68.06c-4.86-16.98-11.08-33.38-19.02-49.07
			c-7.72-15.26-16.64-29.87-27.66-43.04c-6.62-7.91-13.08-16.05-20.49-23.18c-12.9-12.43-26.43-24.09-42.7-32.31
			c-16.59-8.38-33.74-15.19-51.67-19.8c-11.73-3.01-23.75-4.98-36.32-4.7c5.57-0.71,11.46-1.35,17.36-1.96
			c2.43-0.25,4.87-0.45,7.59-0.7c8.2-0.03,16.12-0.02,24.37,0.01c1.11,0.24,1.86,0.57,2.65,0.66c12.05,1.48,24.13,2.76,36.15,4.44
			c15.76,2.2,30.77,7.15,45.31,13.43c17.08,7.38,33.94,15.38,48.61,27c11.98,9.49,23.7,19.41,34.73,29.99
			c7.54,7.23,13.89,15.76,20.44,23.98c17.68,22.19,30.21,47.21,38.36,74.22c4.36,14.43,6.85,29.45,9.69,44.29
			C499.65,225.7,499.55,232.17,500.02,238.86z"/>
	</g>
</g>
</svg>
