<?xml version="1.0" encoding="utf-8"?>
<!-- Generator: Adobe Adobe Illustrator 24.2.0, SVG Export Plug-In . SVG Version: 6.00 Build 0)  -->
<svg version="1.1" id="Layer_1" xmlns="http://www.w3.org/2000/svg" xmlns:xlink="http://www.w3.org/1999/xlink" x="0px" y="0px"
	 viewBox="0 0 500 500" style="enable-background:new 0 0 500 500;" xml:space="preserve">
<style type="text/css">
	.st0{fill:#F8EEB6;}
	.st1{fill:#010101;}
	.st2{fill:#252524;}
	.st3{fill:#CEC9B1;}
	.st4{fill:#D4CEAE;}
</style>
<g>
	<g>
		<path class="st0" d="M289.41,4.81c0.69,0.06,1.38,0.13,2.4,0.38c0.33,0.19,0.33,0.51,0.17,0.53c-0.34,0.09-0.52,0.17-0.7,0.25
			c0.29-0.08,0.58-0.17,1.15-0.24c0.82,0,1.37-0.01,1.92-0.02c40.8,6.54,77.25,23.16,109.53,48.62
			c50.54,39.86,80.99,91.92,92.24,155.23c0.91,5.1,1.19,10.31,1.75,16.04c0.21,1.35,0.43,2.13,0.65,2.9
			c0.02,1.71,0.05,3.42,0.06,5.74c0.21,2.06,0.43,3.5,0.64,4.95c0.02,7.45,0.03,14.89-0.16,22.88c-0.3,2.05-0.39,3.55-0.49,5.06
			c-0.01,1.71-0.01,3.42-0.22,5.63c-0.3,1.32-0.39,2.15-0.49,2.98c-4.53,51.31-24.01,96.55-57,135.72
			c-37.76,44.83-85.93,72.59-143.44,84.09c-0.81,0.16-1.65,0.12-3.06,0.15c-1.13-0.01-1.67-0.01-2.31-0.14
			c-0.32-0.13-0.55-0.12-0.78-0.11c0.28,0.09,0.57,0.17,0.86,0.42c0,0.16,0.02,0.49,0.02,0.49c-0.69,0.06-1.37,0.13-2.69,0.19
			c-3.35-0.01-6.05-0.01-9.07-0.07c-46.46-3.55-87.11-20.87-119.47-53.52c-77.96-78.68-96.6-173.46-65.7-277.19
			C123.57,70.65,195.53,11.03,281.02,4.94C284.03,4.93,286.72,4.87,289.41,4.81z"/>
		<path class="st1" d="M280.7,4.89c-85.17,6.15-157.13,65.76-185.47,160.89c-30.9,103.73-12.26,198.51,65.7,277.19
			c32.36,32.66,73.01,49.97,119.55,53.68c0.57,0.51,0.74,0.81,0.92,1.11C148.19,514.3,25.25,421.87,5.05,289.99
			C-16,152.6,76.85,24.8,213.42,4.78c22.04-3.23,44.9-0.94,67.61-0.99C281.08,4.29,280.89,4.59,280.7,4.89z"/>
		<path class="st2" d="M281.02,4.94c-0.13-0.35,0.05-0.64,0.31-1.1c2.61,0.12,5.15,0.4,7.89,0.83
			C286.72,4.87,284.03,4.93,281.02,4.94z"/>
		<path class="st2" d="M281.7,497.82c-0.47-0.36-0.65-0.66-0.91-1.12c2.63-0.15,5.33-0.14,8.34-0.1
			C286.94,497.04,284.47,497.46,281.7,497.82z"/>
		<path class="st3" d="M499.24,238.92c-0.24-1.16-0.45-2.6-0.67-4.34C498.8,235.73,499.03,237.18,499.24,238.92z"/>
		<path class="st3" d="M498.77,266.94c-0.1-1.3-0.01-2.81,0.27-4.51C499.14,263.73,499.05,265.24,498.77,266.94z"/>
		<path class="st3" d="M498.54,228.26c-0.24-0.52-0.46-1.29-0.68-2.32C498.1,226.45,498.33,227.23,498.54,228.26z"/>
		<path class="st3" d="M498.06,275.59c-0.1-0.66,0-1.49,0.28-2.5C498.43,273.75,498.34,274.58,498.06,275.59z"/>
		<path class="st4" d="M294.19,5.53c-0.4,0.2-0.94,0.21-1.77,0.2c-0.28-0.01-0.28-0.02-0.28-0.02s0.01-0.32,0.02-0.49
			C292.79,5.15,293.41,5.25,294.19,5.53z"/>
		<path class="st4" d="M292.41,496.39c-0.24-0.02-0.26-0.35-0.26-0.51c0-0.17,0.01-0.17,0.01-0.17c0.55,0,1.1-0.01,1.92,0
			C293.78,495.95,293.21,496.18,292.41,496.39z"/>
		<path class="st4" d="M292.15,5.72c-0.29,0.09-0.58,0.17-0.87,0.25c0.18-0.08,0.36-0.16,0.7-0.25
			C292.14,5.71,292.14,5.71,292.15,5.72z"/>
		<path class="st4" d="M292.14,495.72c-0.29-0.08-0.57-0.17-0.86-0.25c0.23-0.01,0.47-0.02,0.78,0.11
			C292.15,495.71,292.14,495.71,292.14,495.72z"/>
	</g>
</g>
</svg>
